<svg width="8" height="13" viewBox="0 0 8 13" fill="none" xmlns="http://www.w3.org/2000/svg">
<path d="M1.754 0.495191C1.638 0.373863 1.48787 0.302495 1.31043 0.302495C0.955543 0.302495 0.689409 0.580806 0.689409 0.951887C0.689409 1.13027 0.757631 1.29441 0.86685 1.41571L5.83498 6.49644L0.86685 11.5772C0.75763 11.6985 0.689408 11.8697 0.689408 12.041C0.689408 12.4121 0.955542 12.6975 1.31043 12.6975C1.48787 12.6975 1.638 12.6261 1.754 12.5048L7.15892 6.97454C7.28858 6.86037 7.36365 6.68198 7.36365 6.49644C7.36365 6.31806 7.28858 6.15392 7.15892 6.01834L1.754 0.495191Z" fill="white"/>
</svg>
