<svg width="24" height="26" viewBox="0 0 24 26" fill="none" xmlns="http://www.w3.org/2000/svg">
<g id="&#240;&#159;&#166;&#134; icon &#34;bell&#34;">
<path id="Vector" d="M1.90026 21.4569H14.5731C14.485 23.1559 13.3901 24.2382 11.88 24.2382C10.3572 24.2382 9.27492 23.1559 9.17425 21.4569H7.21105C7.31173 23.8732 9.21199 26 11.88 26C14.5354 26 16.4356 23.8732 16.5363 21.4569H21.8471C23.0425 21.4569 23.7474 20.8403 23.7474 19.9342C23.7474 18.6757 22.4763 17.5431 21.3814 16.423C20.5508 15.5547 20.3243 13.7677 20.2362 12.3204C20.1356 7.36204 18.8645 4.15292 15.5044 2.94479C15.0891 1.30881 13.7299 0 11.88 0C10.0174 0 8.67086 1.30881 8.24296 2.94479C4.89546 4.15292 3.61178 7.36204 3.52372 12.3204C3.42304 13.7677 3.20907 15.5547 2.3659 16.423C1.28363 17.5431 0 18.6757 0 19.9342C0 20.8403 0.717309 21.4569 1.90026 21.4569ZM2.45401 19.5566V19.4056C2.68055 19.0281 3.42304 18.2982 4.09004 17.5557C4.98352 16.5489 5.41142 14.9381 5.52466 12.4714C5.62534 6.98452 7.26137 5.22263 9.42591 4.64374C9.74056 4.56825 9.90417 4.40464 9.91674 4.08999C9.9671 2.76861 10.7096 1.84995 11.88 1.84995C13.0377 1.84995 13.7929 2.76861 13.8306 4.08999C13.8432 4.40464 14.0193 4.56825 14.334 4.64374C16.486 5.22263 18.122 6.98452 18.2352 12.4714C18.3359 14.9381 18.7638 16.5489 19.6699 17.5557C20.3243 18.2982 21.0794 19.0281 21.3059 19.4056V19.5566H2.45401Z" fill="#555"/>
</g>
</svg>
