<svg xmlns="http://www.w3.org/2000/svg" width="16" height="16" viewBox="0 0 16 16" fill="none">
  <path d="M0.261116 14.4673C-0.081961 14.8104 -0.0920793 15.3958 0.261116 15.7389C0.614354 16.082 1.18955 16.082 1.54274 15.7389L8.00126 9.28036L14.4598 15.7389C14.8029 16.082 15.3882 16.0921 15.7414 15.7389C16.0845 15.3856 16.0845 14.8104 15.7414 14.4673L9.27278 7.99874L15.7414 1.54021C16.0845 1.19709 16.0946 0.611781 15.7414 0.268704C15.3781 -0.084491 14.8029 -0.084491 14.4598 0.268704L8.00126 6.72722L1.54274 0.268704C1.18955 -0.084491 0.604235 -0.0946093 0.261116 0.268704C-0.081961 0.621899 -0.081961 1.19709 0.261116 1.54021L6.71964 7.99874L0.261116 14.4673Z" fill="black"/>
</svg>