<svg width="29" height="26" viewBox="0 0 29 26" fill="none" xmlns="http://www.w3.org/2000/svg">
<g id="&#240;&#159;&#166;&#134; icon &#34;house&#34;">
<path id="Vector" d="M6.33001 26H22.5631C24.3186 26 25.3449 25.0109 25.3449 23.2677V11.98L26.9395 13.4389C27.1993 13.6862 27.4836 13.8592 27.8298 13.8592C28.4109 13.8592 28.8806 13.5007 28.8806 12.9073C28.8806 12.5364 28.7446 12.3015 28.5099 12.0913L24.2197 8.1721V0.890158C24.2197 0.346146 23.8735 0 23.3297 0H21.7099C21.1783 0 20.8074 0.346146 20.8074 0.890158V5.06892L15.9239 0.618178C15.4912 0.222553 14.972 0 14.4403 0C13.9087 0 13.3895 0.222553 12.9567 0.618178L0.370886 12.0913C0.148386 12.3015 0 12.5364 0 12.9073C0 13.5007 0.469792 13.8592 1.05089 13.8592C1.40943 13.8592 1.69375 13.6862 1.94105 13.4389L3.53589 11.9924V23.2677C3.53589 25.0109 4.56204 26 6.33001 26ZM18.001 15.8003C18.001 15.2316 17.6301 14.8731 17.0614 14.8731H11.8193C11.2506 14.8731 10.8674 15.2316 10.8674 15.8003V24.0095H6.75038C5.95913 24.0095 5.52642 23.5768 5.52642 22.7732V10.175L14.0076 2.44792C14.1313 2.32428 14.2796 2.25011 14.4403 2.25011C14.6011 2.25011 14.7494 2.31193 14.8854 2.44792L23.3542 10.175V22.7732C23.3542 23.5768 22.9215 24.0095 22.1427 24.0095H18.001V15.8003Z" fill="white"/>
</g>
</svg>
