<svg width="26" height="26" viewBox="0 0 26 26" fill="none" xmlns="http://www.w3.org/2000/svg">
<g id="&#240;&#159;&#166;&#134; icon &#34;person crop circle&#34;">
<path id="Vector" d="M12.9999 26C20.099 26 26 20.1117 26 13C26 5.90099 20.0862 0 12.9872 0C5.87543 0 0 5.90099 0 13C0 20.1117 5.88821 26 12.9999 26ZM12.9999 17.3461C9.16367 17.3461 6.20682 18.7098 4.91956 20.2392C3.21173 18.3274 2.17935 15.7912 2.17935 13C2.17935 6.99705 6.97155 2.16668 12.9872 2.16668C18.9901 2.16668 23.8205 6.99705 23.8333 13C23.8333 15.8039 22.8009 18.3402 21.0803 20.2519C19.7931 18.7225 16.8362 17.3461 12.9999 17.3461ZM12.9999 15.1794C15.447 15.2049 17.3715 13.1147 17.3715 10.3745C17.3715 7.80001 15.4343 5.65884 12.9999 5.65884C10.5529 5.65884 8.60292 7.80001 8.62842 10.3745C8.64114 13.1147 10.5402 15.1539 12.9999 15.1794Z" fill="white"/>
</g>
</svg>
