<svg width="26" height="26" viewBox="0 0 26 26" fill="none" xmlns="http://www.w3.org/2000/svg">
<g id="&#240;&#159;&#166;&#134; icon &#34;checkmark alt circle&#34;">
<path id="Vector" d="M13 0C20.1797 0 26 5.8203 26 13C26 20.1797 20.1797 26 13 26C5.8203 26 0 20.1797 0 13C0 5.8203 5.8203 0 13 0ZM13 2.16667C7.01692 2.16667 2.16667 7.01692 2.16667 13C2.16667 18.9831 7.01692 23.8333 13 23.8333C18.9831 23.8333 23.8333 18.9831 23.8333 13C23.8333 7.01692 18.9831 2.16667 13 2.16667ZM18.8434 8.62912C19.206 8.99175 19.206 9.57968 18.8434 9.94231L11.6071 17.1786C11.2445 17.5412 10.6566 17.5412 10.2939 17.1786L7.23626 14.1209C6.87363 13.7583 6.87363 13.1703 7.23626 12.8077C7.59889 12.4451 8.18683 12.4451 8.54946 12.8077L10.2939 14.5522C10.6566 14.9148 11.2445 14.9148 11.6071 14.5522L17.5302 8.62912C17.8928 8.26649 18.4808 8.26649 18.8434 8.62912Z" fill="#555"/>
</g>
</svg>
